<svg xmlns="http://www.w3.org/2000/svg" xmlns:xlink="http://www.w3.org/1999/xlink" width="150" zoomAndPan="magnify" viewBox="0 0 112.5 30.000001" height="40" preserveAspectRatio="xMidYMid meet" version="1.0"><defs><filter x="0%" y="0%" width="100%" height="100%" id="b6f1744838"><feColorMatrix values="0 0 0 0 1 0 0 0 0 1 0 0 0 0 1 0 0 0 1 0" color-interpolation-filters="sRGB"></feColorMatrix></filter><filter x="0%" y="0%" width="100%" height="100%" id="702d39dd45"><feColorMatrix values="0 0 0 0 1 0 0 0 0 1 0 0 0 0 1 0.2126 0.7152 0.0722 0 0" color-interpolation-filters="sRGB"></feColorMatrix></filter><g></g><clipPath id="9fd11043f7"><path d="M 2 2 L 30 2 L 30 28.972656 L 2 28.972656 Z M 2 2 " clip-rule="nonzero"></path></clipPath><image x="0" y="0" width="300" id="93a7f47350" height="284" preserveAspectRatio="xMidYMid meet"></image><mask id="290a7bd3e2"><g filter="url(#b6f1744838)"><g filter="url(#702d39dd45)" transform="matrix(0.0947742, 0, 0, 0.0949795, 1.572579, 1.998037)"><image x="0" y="0" width="300" height="284" preserveAspectRatio="xMidYMid meet"></image></g></g></mask><image x="0" y="0" width="300" id="7db8417d10" height="284" preserveAspectRatio="xMidYMid meet"></image></defs><g fill="#3f3f40" fill-opacity="1"><g transform="translate(33.776567, 21.389465)"><g><path d="M 0.15625 0 L 3.765625 0 L 5.199219 -4 L 12.351562 -4 L 13.769531 0 L 17.339844 0 L 10.007812 -18.410156 L 7.53125 -18.410156 Z M 6.320312 -6.828125 L 8.78125 -13.550781 L 11.230469 -6.828125 Z M 6.320312 -6.828125 "></path></g></g></g><g fill="#3f3f40" fill-opacity="1"><g transform="translate(51.270993, 21.389465)"><g><path d="M 4.535156 0.261719 C 5.289062 0.261719 6.242188 0.128906 6.90625 0 L 6.90625 -2.671875 C 6.566406 -2.617188 6.214844 -2.59375 6.03125 -2.59375 C 5.394531 -2.59375 4.988281 -2.851562 4.988281 -3.464844 L 4.988281 -18.410156 L 1.8125 -18.410156 L 1.8125 -2.59375 C 1.8125 -0.300781 3.035156 0.261719 4.535156 0.261719 Z M 4.535156 0.261719 "></path></g></g></g><g fill="#3f3f40" fill-opacity="1"><g transform="translate(58.735108, 21.389465)"><g><path d="M 5.445312 0.261719 C 6.996094 0.261719 8.378906 -0.234375 9.496094 -1.863281 L 9.707031 0 L 12.324219 0 L 12.324219 -7.894531 C 12.324219 -11.074219 10.242188 -13.289062 6.695312 -13.289062 C 4.128906 -13.289062 2.476562 -12.144531 1.226562 -10.4375 L 3.660156 -8.675781 C 4.222656 -9.628906 5.222656 -10.515625 6.722656 -10.515625 C 8.402344 -10.515625 9.289062 -9.417969 9.289062 -7.765625 L 5.902344 -7.765625 C 2.984375 -7.765625 0.714844 -6.828125 0.714844 -4 C 0.714844 -1.277344 2.773438 0.261719 5.445312 0.261719 Z M 5.902344 -2.421875 C 4.664062 -2.421875 3.972656 -3.035156 3.972656 -3.894531 C 3.972656 -4.714844 4.636719 -5.472656 6.085938 -5.472656 L 9.289062 -5.472656 C 9.238281 -3.84375 7.714844 -2.421875 5.902344 -2.421875 Z M 5.902344 -2.421875 "></path></g></g></g><g fill="#3f3f40" fill-opacity="1"><g transform="translate(72.556096, 21.389465)"><g><path d="M 1.890625 0 L 5.042969 0 L 5.042969 -7.125 C 5.042969 -9.394531 6.1875 -10.359375 7.972656 -10.359375 C 9.601562 -10.359375 10.460938 -9.121094 10.460938 -7.414062 L 10.460938 0 L 13.601562 0 L 13.601562 -7.816406 C 13.601562 -10.539062 12.300781 -13.289062 8.886719 -13.289062 C 7.609375 -13.289062 6.085938 -12.78125 5.042969 -11.503906 L 5.042969 -13.015625 L 1.890625 -13.015625 Z M 1.890625 0 "></path></g></g></g><g fill="#3f3f40" fill-opacity="1"><g transform="translate(87.679722, 21.389465)"><g><path d="M 1.8125 -15.476562 L 5.121094 -15.476562 L 5.121094 -18.410156 L 1.8125 -18.410156 Z M 1.890625 0 L 5.042969 0 L 5.042969 -13.015625 L 1.890625 -13.015625 Z M 1.890625 0 "></path></g></g></g><g fill="#3f3f40" fill-opacity="1"><g transform="translate(94.609755, 21.389465)"><g><path d="M 5.8125 0.261719 C 8.273438 0.261719 10.890625 -1.066406 10.890625 -4.078125 C 10.890625 -8.859375 4.273438 -7.6875 4.273438 -9.652344 C 4.273438 -10.265625 4.910156 -10.773438 5.953125 -10.773438 C 7.359375 -10.773438 8.089844 -9.929688 8.535156 -9.121094 L 10.996094 -10.460938 C 10.007812 -12.222656 8.300781 -13.289062 6.058594 -13.289062 C 3.542969 -13.289062 1.226562 -11.984375 1.226562 -9.238281 C 1.226562 -4.636719 7.765625 -6.109375 7.765625 -3.921875 C 7.765625 -3.230469 7.125 -2.371094 5.65625 -2.371094 C 3.921875 -2.371094 3.230469 -3.570312 2.878906 -4.507812 L 0.351562 -3.386719 C 0.988281 -1.382812 3.074219 0.261719 5.8125 0.261719 Z M 5.8125 0.261719 "></path></g></g></g><g clip-path="url(#9fd11043f7)"><g mask="url(#290a7bd3e2)"><g transform="matrix(0.0947742, 0, 0, 0.0949795, 1.572579, 1.998037)"><image x="0" y="0" width="300" height="284" preserveAspectRatio="xMidYMid meet"></image></g></g></g><g fill="#3f3f40" fill-opacity="1"><g transform="translate(64.638547, 26.190724)"><g><path d="M 0.945312 0 L 1.460938 0 L 2.109375 -1.960938 L 2.757812 0 L 3.273438 0 L 4.167969 -2.976562 L 3.613281 -2.976562 L 2.976562 -0.785156 L 2.316406 -2.804688 L 1.902344 -2.804688 L 1.242188 -0.785156 L 0.609375 -2.976562 L 0.0507812 -2.976562 Z M 0.945312 0 "></path></g></g></g><g fill="#3f3f40" fill-opacity="1"><g transform="translate(69.204869, 26.190724)"><g><path d="M 0.382812 0 L 2.363281 0 L 2.363281 -0.503906 L 0.917969 -0.503906 L 0.917969 -1.242188 L 2.265625 -1.242188 L 2.265625 -1.734375 L 0.917969 -1.734375 L 0.917969 -2.488281 L 2.363281 -2.488281 L 2.363281 -2.976562 L 0.382812 -2.976562 Z M 0.382812 0 "></path></g></g></g><g fill="#3f3f40" fill-opacity="1"><g transform="translate(72.173809, 26.190724)"><g><path d="M 0.382812 0 L 1.542969 0 C 2.050781 0 2.515625 -0.308594 2.515625 -0.863281 C 2.515625 -1.160156 2.308594 -1.484375 2.039062 -1.59375 C 2.207031 -1.683594 2.367188 -1.902344 2.367188 -2.175781 C 2.367188 -2.769531 1.871094 -2.976562 1.417969 -2.976562 L 0.382812 -2.976562 Z M 0.917969 -1.777344 L 0.917969 -2.496094 L 1.425781 -2.496094 C 1.679688 -2.496094 1.878906 -2.378906 1.878906 -2.144531 C 1.878906 -1.851562 1.675781 -1.777344 1.464844 -1.777344 Z M 0.917969 -0.511719 L 0.917969 -1.316406 L 1.53125 -1.316406 C 1.8125 -1.316406 1.988281 -1.136719 1.988281 -0.921875 C 1.988281 -0.644531 1.828125 -0.511719 1.554688 -0.511719 Z M 0.917969 -0.511719 "></path></g></g></g><g fill="#3f3f40" fill-opacity="1"><g transform="translate(75.203863, 26.190724)"><g></g></g></g><g fill="#3f3f40" fill-opacity="1"><g transform="translate(76.585957, 26.190724)"><g><path d="M 0.382812 0 L 1.242188 0 C 2.246094 0 2.796875 -0.539062 2.796875 -1.464844 C 2.796875 -2.433594 2.261719 -2.976562 1.246094 -2.976562 L 0.382812 -2.976562 Z M 0.917969 -0.492188 L 0.917969 -2.488281 L 1.238281 -2.488281 C 1.972656 -2.488281 2.261719 -2.195312 2.261719 -1.488281 C 2.261719 -0.746094 1.847656 -0.492188 1.191406 -0.492188 Z M 0.917969 -0.492188 "></path></g></g></g><g fill="#3f3f40" fill-opacity="1"><g transform="translate(79.900505, 26.190724)"><g><path d="M 0.382812 0 L 2.363281 0 L 2.363281 -0.503906 L 0.917969 -0.503906 L 0.917969 -1.242188 L 2.265625 -1.242188 L 2.265625 -1.734375 L 0.917969 -1.734375 L 0.917969 -2.488281 L 2.363281 -2.488281 L 2.363281 -2.976562 L 0.382812 -2.976562 Z M 0.382812 0 "></path></g></g></g><g fill="#3f3f40" fill-opacity="1"><g transform="translate(82.869444, 26.190724)"><g><path d="M 1.21875 0 L 1.617188 0 L 2.804688 -2.976562 L 2.21875 -2.976562 L 1.421875 -0.867188 L 0.617188 -2.976562 L 0.0234375 -2.976562 Z M 1.21875 0 "></path></g></g></g><g fill="#3f3f40" fill-opacity="1"><g transform="translate(86.044906, 26.190724)"><g><path d="M 0.382812 0 L 2.363281 0 L 2.363281 -0.503906 L 0.917969 -0.503906 L 0.917969 -1.242188 L 2.265625 -1.242188 L 2.265625 -1.734375 L 0.917969 -1.734375 L 0.917969 -2.488281 L 2.363281 -2.488281 L 2.363281 -2.976562 L 0.382812 -2.976562 Z M 0.382812 0 "></path></g></g></g><g fill="#3f3f40" fill-opacity="1"><g transform="translate(89.013847, 26.190724)"><g><path d="M 0.382812 0 L 2.191406 0 L 2.191406 -0.503906 L 0.917969 -0.503906 L 0.917969 -2.976562 L 0.382812 -2.976562 Z M 0.382812 0 "></path></g></g></g><g fill="#3f3f40" fill-opacity="1"><g transform="translate(91.599246, 26.190724)"><g><path d="M 1.609375 0.0429688 C 2.59375 0.0429688 3.046875 -0.679688 3.046875 -1.488281 C 3.046875 -2.300781 2.59375 -3.023438 1.609375 -3.023438 C 0.625 -3.023438 0.171875 -2.300781 0.171875 -1.488281 C 0.171875 -0.679688 0.625 0.0429688 1.609375 0.0429688 Z M 1.609375 -0.433594 C 0.972656 -0.433594 0.738281 -0.925781 0.738281 -1.488281 C 0.738281 -2.050781 0.972656 -2.546875 1.609375 -2.546875 C 2.25 -2.546875 2.484375 -2.050781 2.484375 -1.488281 C 2.484375 -0.925781 2.25 -0.433594 1.609375 -0.433594 Z M 1.609375 -0.433594 "></path></g></g></g><g fill="#3f3f40" fill-opacity="1"><g transform="translate(95.16457, 26.190724)"><g><path d="M 0.382812 0 L 0.914062 0 L 0.914062 -1.234375 L 1.316406 -1.234375 C 1.925781 -1.234375 2.367188 -1.539062 2.367188 -2.097656 C 2.367188 -2.660156 1.925781 -2.976562 1.316406 -2.976562 L 0.382812 -2.976562 Z M 0.914062 -1.734375 L 0.914062 -2.476562 L 1.316406 -2.476562 C 1.679688 -2.476562 1.835938 -2.339844 1.835938 -2.097656 C 1.835938 -1.859375 1.683594 -1.734375 1.316406 -1.734375 Z M 0.914062 -1.734375 "></path></g></g></g><g fill="#3f3f40" fill-opacity="1"><g transform="translate(97.969135, 26.190724)"><g><path d="M 0.382812 0 L 2.363281 0 L 2.363281 -0.503906 L 0.917969 -0.503906 L 0.917969 -1.242188 L 2.265625 -1.242188 L 2.265625 -1.734375 L 0.917969 -1.734375 L 0.917969 -2.488281 L 2.363281 -2.488281 L 2.363281 -2.976562 L 0.382812 -2.976562 Z M 0.382812 0 "></path></g></g></g><g fill="#3f3f40" fill-opacity="1"><g transform="translate(100.938074, 26.190724)"><g><path d="M 0.382812 0.00390625 L 0.917969 0.00390625 L 0.917969 -1.273438 L 1.277344 -1.273438 L 2.011719 0.00390625 L 2.625 0.00390625 L 1.796875 -1.324219 C 2.132812 -1.441406 2.378906 -1.726562 2.378906 -2.101562 C 2.378906 -2.660156 1.902344 -2.976562 1.347656 -2.976562 L 0.382812 -2.976562 Z M 0.921875 -1.710938 L 0.921875 -2.5 L 1.351562 -2.5 C 1.65625 -2.5 1.847656 -2.339844 1.847656 -2.09375 C 1.847656 -1.871094 1.679688 -1.722656 1.394531 -1.710938 Z M 0.921875 -1.710938 "></path></g></g></g></svg>